<?xml version="1.0" standalone="no"?>
<!DOCTYPE svg PUBLIC "-//W3C//DTD SVG 20010904//EN"
 "http://www.w3.org/TR/2001/REC-SVG-20010904/DTD/svg10.dtd">
<svg version="1.0" xmlns="http://www.w3.org/2000/svg"
 width="1024.000000pt" height="1024.000000pt" viewBox="0 0 1024.000000 1024.000000"
 preserveAspectRatio="xMidYMid meet">
<metadata>
Created by potrace 1.15, written by Peter Selinger 2001-2017
</metadata>
<g transform="translate(0.000000,1024.000000) scale(0.100000,-0.100000)"
fill="#000000" stroke="none">
<path d="M8745 9050 c-637 -45 -1490 -221 -2390 -495 -652 -199 -1168 -403
-1680 -664 -521 -266 -907 -531 -1190 -815 -252 -253 -397 -490 -460 -750
-137 -562 150 -926 898 -1142 184 -53 510 -99 1727 -244 558 -66 696 -87 879
-131 292 -71 462 -164 517 -284 28 -58 29 -89 9 -165 -58 -220 -319 -530 -760
-905 -504 -428 -1122 -778 -1880 -1063 -748 -281 -1459 -444 -2150 -492 -187
-13 -570 -13 -736 1 -613 50 -931 222 -956 519 -24 280 195 547 637 779 415
217 932 387 1443 476 158 27 208 43 244 77 32 30 31 87 -2 127 -40 47 -82 56
-245 54 -395 -4 -869 -137 -1353 -379 -608 -305 -947 -619 -1049 -971 -32
-109 -32 -339 0 -458 94 -351 383 -584 863 -694 466 -108 1210 -104 1949 10
764 118 1589 390 2242 739 539 289 960 596 1375 1003 393 386 619 727 679
1026 22 111 15 326 -14 421 -67 225 -197 429 -330 522 -143 99 -392 189 -720
258 -215 46 -313 60 -1267 185 -484 63 -929 126 -990 140 -380 86 -622 208
-695 351 -21 40 -25 63 -25 129 1 134 65 260 210 413 178 188 415 353 800 560
973 521 2726 1117 3848 1307 300 50 448 66 698 72 254 6 397 -4 542 -41 112
-29 164 -54 222 -107 171 -157 47 -420 -340 -722 -327 -255 -955 -609 -1353
-763 -228 -89 -441 -126 -510 -90 -18 9 -32 20 -32 25 0 26 75 114 147 171
114 91 238 166 633 383 190 104 347 191 348 192 2 2 1 13 -3 24 -17 53 -167
49 -341 -9 -273 -92 -694 -359 -914 -580 -152 -151 -210 -257 -210 -382 0 -82
14 -128 53 -180 76 -99 207 -143 427 -142 207 1 392 48 651 164 398 178 989
600 1364 975 334 333 498 613 512 875 21 382 -209 605 -697 675 -132 19 -455
26 -625 15z"/>
</g>
</svg>
